<svg xmlns="http://www.w3.org/2000/svg" width="470" height="290" viewBox="0 0 470 290" font-family="system-ui, -apple-system, 'Segoe UI', Arial, sans-serif" role="img" aria-labelledby="t d">
<title id="t">Since 2021, Brazil has pulled ahead of Mexico in fixed broadband</title>
<desc id="d">Line chart of fixed broadband subscriptions per 100 people, 2014 to 2024, for Mexico, Brazil, South Korea, Finland and India.</desc>
<rect width="470" height="290" fill="#fcfcfb"/>
<line x1="34" y1="14" x2="52" y2="14" stroke="#2a78d6" stroke-width="2.5" stroke-linecap="round"/>
<text x="58" y="18" font-size="14.2" fill="#52514e">Mexico</text>
<line x1="129.56" y1="14" x2="147.56" y2="14" stroke="#eb6834" stroke-width="2.5" stroke-linecap="round"/>
<text x="153.56" y="18" font-size="14.2" fill="#52514e">Brazil</text>
<line x1="225.12" y1="14" x2="243.12" y2="14" stroke="#c3c2b7" stroke-width="2" stroke-linecap="round"/>
<text x="249.12" y="18" font-size="14.2" fill="#52514e">Other peers</text>
<line x1="34" y1="264.0" x2="330" y2="264.0" stroke="#c3c2b7" stroke-width="1"/>
<text x="26" y="268.0" font-size="13.0" fill="#898781" text-anchor="end" style="font-variant-numeric: tabular-nums">0</text>
<line x1="34" y1="218.0" x2="330" y2="218.0" stroke="#e1e0d9" stroke-width="1"/>
<text x="26" y="222.0" font-size="13.0" fill="#898781" text-anchor="end" style="font-variant-numeric: tabular-nums">10</text>
<line x1="34" y1="172.0" x2="330" y2="172.0" stroke="#e1e0d9" stroke-width="1"/>
<text x="26" y="176.0" font-size="13.0" fill="#898781" text-anchor="end" style="font-variant-numeric: tabular-nums">20</text>
<line x1="34" y1="126.0" x2="330" y2="126.0" stroke="#e1e0d9" stroke-width="1"/>
<text x="26" y="130.0" font-size="13.0" fill="#898781" text-anchor="end" style="font-variant-numeric: tabular-nums">30</text>
<line x1="34" y1="80.0" x2="330" y2="80.0" stroke="#e1e0d9" stroke-width="1"/>
<text x="26" y="84.0" font-size="13.0" fill="#898781" text-anchor="end" style="font-variant-numeric: tabular-nums">40</text>
<line x1="34" y1="34.0" x2="330" y2="34.0" stroke="#e1e0d9" stroke-width="1"/>
<text x="26" y="38.0" font-size="13.0" fill="#898781" text-anchor="end" style="font-variant-numeric: tabular-nums">50</text>
<text x="34.0" y="285.2" font-size="13.0" fill="#898781" text-anchor="middle" style="font-variant-numeric: tabular-nums">2014</text>
<text x="93.2" y="285.2" font-size="13.0" fill="#898781" text-anchor="middle" style="font-variant-numeric: tabular-nums">2016</text>
<text x="152.4" y="285.2" font-size="13.0" fill="#898781" text-anchor="middle" style="font-variant-numeric: tabular-nums">2018</text>
<text x="211.6" y="285.2" font-size="13.0" fill="#898781" text-anchor="middle" style="font-variant-numeric: tabular-nums">2020</text>
<text x="270.8" y="285.2" font-size="13.0" fill="#898781" text-anchor="middle" style="font-variant-numeric: tabular-nums">2022</text>
<text x="330.0" y="285.2" font-size="13.0" fill="#898781" text-anchor="middle" style="font-variant-numeric: tabular-nums">2024</text>
<polyline points="34.0,89.3 63.6,83.3 93.2,79.7 122.8,74.6 152.4,74.4 182.0,70.6 211.6,66.0 241.2,60.4 270.8,54.9 300.4,49.8 330.0,44.1" fill="none" stroke="#c3c2b7" stroke-width="2" stroke-linejoin="round" stroke-linecap="round"/>
<polyline points="34.0,115.9 63.6,118.8 93.2,120.7 122.8,121.2 152.4,119.1 182.0,114.3 211.6,110.4 241.2,109.3 270.8,106.2 300.4,101.5 330.0,96.2" fill="none" stroke="#c3c2b7" stroke-width="2" stroke-linejoin="round" stroke-linecap="round"/>
<polyline points="34.0,258.5 63.6,258.1 93.2,257.6 122.8,258.0 152.4,257.9 182.0,257.7 211.6,256.5 241.2,255.0 270.8,253.2 300.4,251.4 330.0,249.5" fill="none" stroke="#c3c2b7" stroke-width="2" stroke-linejoin="round" stroke-linecap="round"/>
<polyline points="34.0,208.9 63.6,205.9 93.2,203.2 122.8,199.0 152.4,194.3 182.0,191.0 211.6,183.9 241.2,172.8 270.8,167.6 300.4,160.9 330.0,153.2" fill="none" stroke="#fcfcfb" stroke-width="5" stroke-linejoin="round" stroke-linecap="round"/>
<polyline points="34.0,208.9 63.6,205.9 93.2,203.2 122.8,199.0 152.4,194.3 182.0,191.0 211.6,183.9 241.2,172.8 270.8,167.6 300.4,160.9 330.0,153.2" fill="none" stroke="#eb6834" stroke-width="2.5" stroke-linejoin="round" stroke-linecap="round"/>
<polyline points="34.0,214.0 63.6,207.9 93.2,204.1 122.8,200.6 152.4,196.2 182.0,193.2 211.6,182.3 241.2,175.3 270.8,169.2 300.4,168.5 330.0,164.0" fill="none" stroke="#fcfcfb" stroke-width="5" stroke-linejoin="round" stroke-linecap="round"/>
<polyline points="34.0,214.0 63.6,207.9 93.2,204.1 122.8,200.6 152.4,196.2 182.0,193.2 211.6,182.3 241.2,175.3 270.8,169.2 300.4,168.5 330.0,164.0" fill="none" stroke="#2a78d6" stroke-width="2.5" stroke-linejoin="round" stroke-linecap="round"/>
<circle cx="330.0" cy="44.1" r="4" fill="#c3c2b7" stroke="#fcfcfb" stroke-width="2"/>
<text x="340.0" y="48.1" font-size="14.2" font-weight="400" fill="#52514e">South Korea 47.8</text>
<circle cx="330.0" cy="96.2" r="4" fill="#c3c2b7" stroke="#fcfcfb" stroke-width="2"/>
<text x="340.0" y="100.2" font-size="14.2" font-weight="400" fill="#52514e">Finland 36.5</text>
<circle cx="330.0" cy="249.5" r="4" fill="#c3c2b7" stroke="#fcfcfb" stroke-width="2"/>
<text x="340.0" y="253.5" font-size="14.2" font-weight="400" fill="#52514e">India 3.2</text>
<circle cx="330.0" cy="153.2" r="4" fill="#eb6834" stroke="#fcfcfb" stroke-width="2"/>
<text x="340.0" y="153.2" font-size="14.2" font-weight="700" fill="#0b0b0b">Brazil 24.1</text>
<circle cx="330.0" cy="164.0" r="4" fill="#2a78d6" stroke="#fcfcfb" stroke-width="2"/>
<text x="340.0" y="172.1" font-size="14.2" font-weight="700" fill="#0b0b0b">Mexico 21.7</text>
</svg>